<svg width="53" height="53" viewBox="0 0 53 53" fill="none" xmlns="http://www.w3.org/2000/svg">
<path d="M0 0H53V53H0V0Z" fill="#F7DF1E"/>
<path d="M13.9356 44.2907L17.9916 41.8361C18.774 43.2235 19.4858 44.3973 21.1932 44.3973C22.8298 44.3973 23.8616 43.7571 23.8616 41.2669V24.3322H28.8423V41.3373C28.8423 46.496 25.8184 48.8441 21.4067 48.8441C17.4224 48.8441 15.1095 46.7805 13.9355 44.2903" fill="black"/>
<path d="M31.5479 43.757L35.6033 41.4089C36.6708 43.1523 38.0584 44.433 40.513 44.433C42.5767 44.433 43.8927 43.4012 43.8927 41.9781C43.8927 40.2704 42.5409 39.6655 40.2639 38.6697L39.0191 38.1357C35.4256 36.6062 33.0419 34.685 33.0419 30.6292C33.0419 26.8936 35.888 24.0474 40.3352 24.0474C43.5016 24.0474 45.7785 25.1504 47.4149 28.0321L43.537 30.5224C42.6831 28.9927 41.7583 28.388 40.3353 28.388C38.8767 28.388 37.9516 29.313 37.9516 30.5224C37.9516 32.0166 38.8767 32.6216 41.011 33.5466L42.2561 34.0803C46.4898 35.8948 48.8736 37.7446 48.8736 41.9069C48.8736 46.3899 45.3515 48.8445 40.6199 48.8445C35.9949 48.8445 33.0064 46.6388 31.5479 43.757" fill="black"/>
</svg>
